<svg version="1.0" xmlns="http://www.w3.org/2000/svg" width="66.667" height="66.667" viewBox="0 0 50 50"><path d="M21.2 4.5c-1.7.8-3.7 2.6-4.2 4-1.4 3.6-.6 13.4 1.3 17.2 2.9 5.5 2.3 7-4.3 10.3-5.8 2.9-8 5.3-8 8.4C6 45.8 8.5 46 26 46s20-.2 20-1.6c0-3.1-2.2-5.5-8-8.4-6.7-3.4-7.2-4.7-4.2-10.8 1.9-3.7 2.7-12.9 1.6-16.5-.5-1.7-7.5-5.7-9.9-5.6-.5 0-2.5.6-4.3 1.4zm8.2 2c2.2.9 3.8 2.4 4.1 3.8.9 3.9 0 11.1-1.8 14.5-1 1.8-1.7 4.8-1.5 6.5.3 2.8 1 3.5 6 5.9 3.1 1.5 6.2 3.6 6.8 4.8 1.1 2 .9 2-17 2S7.9 44 9 42c.6-1.2 3.7-3.3 6.8-4.8 5-2.4 5.7-3.1 6-5.9.2-1.7-.5-4.7-1.4-6.5-2.3-4.3-2.8-13.5-.9-16.5.8-1.2 2.5-2.4 3.7-2.6 1.3-.2 2.4-.5 2.4-.6.1 0 1.8.6 3.8 1.4z" fill="#F93"/></svg>