<svg version="1.0" xmlns="http://www.w3.org/2000/svg" width="66.667" height="66.667" viewBox="0 0 50 50"><path d="M.4 3.1c-1.1 1.8 1.3 3.4 3 2 .8-.7 3-1.1 4.8-.9l3.3.3 4.6 18.1c2.5 10 5 18.8 5.5 19.5.4.7.8 2.4.8 3.8.2 5.1 6.7 5.3 7.4.2.4-2.7 5.2-3.1 5.2-.3 0 3.8 4.6 5.6 7 2.7.7-.8 1-2.5.6-4-.6-2.4-.9-2.5-9.4-2.5-9.1 0-11.2-.8-11.2-4.2 0-1.6 1-1.8 9.3-1.8h9.3l3.3-9.3c1.9-5 3.6-9.8 3.9-10.5.3-.9-3.2-1.2-15.6-1.2h-16L15 10c-.7-2.8-1.9-5.7-2.7-6.5-1.7-1.8-10.8-2-11.9-.4zM45 17.8c0 .4-1.3 4.1-2.9 8.2l-2.8 7.5-9.1.3-9.1.3-1.1-4.3c-.6-2.4-1.5-5.9-2.1-7.8-.5-1.9-.9-3.8-.9-4.3 0-.4 6.3-.7 14-.7s14 .3 14 .8zM27.6 45.1c1 1.7-1.3 3.6-2.7 2.2-1.2-1.2-.4-3.3 1.1-3.3.5 0 1.2.5 1.6 1.1zm13 0c1 1.7-1.3 3.6-2.7 2.2-1.2-1.2-.4-3.3 1.1-3.3.5 0 1.2.5 1.6 1.1z" fill="#F93"/></svg>