<?xml version="1.0" standalone="no"?>
<!DOCTYPE svg PUBLIC "-//W3C//DTD SVG 20010904//EN"
 "http://www.w3.org/TR/2001/REC-SVG-20010904/DTD/svg10.dtd">
<svg version="1.0" xmlns="http://www.w3.org/2000/svg"
 width="50.000000pt" height="50.000000pt" viewBox="0 0 50.000000 50.000000"
 preserveAspectRatio="xMidYMid meet">

<g transform="translate(0.000000,50.000000) scale(0.100000,-0.100000)"
fill="#FF9933" stroke="none">
<path d="M4 469 c-11 -18 13 -34 30 -20 8 7 30 11 48 9 l33 -3 46 -181 c25
-100 50 -188 55 -195 4 -7 8 -24 8 -38 2 -51 67 -53 74 -2 4 27 52 31 52 3 0
-38 46 -56 70 -27 7 8 10 25 6 40 -6 24 -9 25 -94 25 -91 0 -112 8 -112 42 0
16 10 18 93 18 l93 0 33 93 c19 50 36 98 39 105 3 9 -32 12 -156 12 l-160 0
-12 50 c-7 28 -19 57 -27 65 -17 18 -108 20 -119 4z m446 -147 c0 -4 -13 -41
-29 -82 l-28 -75 -91 -3 -91 -3 -11 43 c-6 24 -15 59 -21 78 -5 19 -9 38 -9
43 0 4 63 7 140 7 77 0 140 -3 140 -8z m-174 -273 c10 -17 -13 -36 -27 -22
-12 12 -4 33 11 33 5 0 12 -5 16 -11z m130 0 c10 -17 -13 -36 -27 -22 -12 12
-4 33 11 33 5 0 12 -5 16 -11z"/>
</g>
</svg>
