<?xml version="1.0" standalone="no"?>
<!DOCTYPE svg PUBLIC "-//W3C//DTD SVG 20010904//EN"
 "http://www.w3.org/TR/2001/REC-SVG-20010904/DTD/svg10.dtd">
<svg version="1.0" xmlns="http://www.w3.org/2000/svg"
 width="512.000000pt" height="512.000000pt" viewBox="0 0 512.000000 512.000000"
 preserveAspectRatio="xMidYMid meet">

<g transform="translate(0.000000,512.000000) scale(0.100000,-0.100000)"
fill="#FF9933" stroke="none">
<path d="M2405 5109 c-225 -18 -445 -90 -574 -187 -61 -46 -200 -206 -245
-282 -17 -30 -42 -83 -55 -117 -31 -83 -70 -144 -142 -218 l-59 -62 45 -6
c101 -14 198 -92 229 -185 22 -62 20 -147 -3 -199 l-19 -41 46 29 c183 113
420 -13 425 -225 l1 -53 27 37 c95 131 284 146 399 31 26 -26 53 -64 61 -84 7
-20 16 -37 19 -37 3 0 11 15 18 33 18 50 65 100 123 132 45 25 65 30 124 30
60 0 78 -4 125 -31 30 -17 69 -49 85 -71 l31 -39 1 52 c5 213 242 338 425 225
l46 -29 -19 41 c-23 52 -25 137 -3 199 31 93 128 171 229 185 l45 6 -59 62
c-72 74 -111 135 -142 218 -13 34 -38 87 -55 117 -45 76 -184 236 -245 282
-135 101 -344 167 -593 188 -141 11 -145 11 -291 -1z"/>
<path d="M985 3993 c-228 -131 -496 -226 -759 -268 -108 -17 -142 -31 -180
-72 -45 -49 -48 -101 -15 -232 186 -718 393 -1283 674 -1840 548 -1087 1221
-1628 1952 -1570 865 68 1599 931 2176 2560 91 254 169 514 256 850 33 131 30
183 -15 232 -39 42 -70 54 -209 77 -248 42 -505 135 -740 268 l-71 40 4 -69
c4 -62 1 -77 -27 -134 -30 -60 -72 -104 -129 -134 -60 -32 -196 -29 -249 5
-13 8 -34 21 -48 30 l-24 16 16 -34 c10 -18 19 -58 21 -90 12 -161 -117 -298
-282 -298 -74 0 -165 46 -211 107 l-35 46 0 -49 c0 -99 -75 -201 -173 -239
-67 -25 -168 -17 -225 19 l-42 26 0 -129 0 -129 29 -12 c43 -17 101 -78 124
-130 17 -38 22 -71 25 -202 l4 -158 84 0 83 0 180 -226 180 -226 -313 -327
c-172 -179 -339 -355 -371 -390 -64 -68 -94 -85 -135 -76 -17 4 -149 135 -403
400 l-377 394 181 225 180 226 83 0 84 0 4 158 c3 131 8 164 25 202 23 52 81
113 124 130 l29 12 0 129 0 129 -42 -26 c-50 -32 -148 -43 -214 -25 -94 25
-184 145 -184 245 l0 49 -35 -46 c-46 -61 -137 -107 -211 -107 -106 0 -210 64
-260 160 -25 48 -26 181 -2 229 l18 33 -23 -16 c-135 -98 -319 -70 -406 61
-42 64 -54 105 -49 179 2 35 4 64 3 64 0 0 -36 -21 -80 -47z m-528 -536 c20
-21 63 -154 63 -198 0 -32 -53 -79 -90 -79 -47 0 -74 34 -98 126 -26 96 -27
113 -6 142 32 46 90 50 131 9z m140 -479 c11 -13 42 -88 68 -168 99 -301 213
-581 386 -946 119 -250 122 -264 72 -304 -31 -24 -71 -26 -102 -4 -24 17 -141
253 -261 524 -141 319 -317 812 -306 856 16 63 101 88 143 42z"/>
<path d="M2522 2810 c-39 -16 -52 -67 -52 -205 l0 -125 90 0 90 0 0 125 c0
142 -13 189 -55 205 -31 12 -42 12 -73 0z"/>
</g>
</svg>
